<svg id="SvgjsSvg1013" width="288" height="288" xmlns="http://www.w3.org/2000/svg" version="1.1" xmlns:xlink="http://www.w3.org/1999/xlink" xmlns:svgjs="http://svgjs.com/svgjs"><defs id="SvgjsDefs1014"></defs><g id="SvgjsG1015" transform="matrix(1,0,0,1,0,0)"><svg xmlns="http://www.w3.org/2000/svg" viewBox="0 0 32 32" width="288" height="288"><g data-name="Layer 51" fill="#ff4555" class="color000 svgShape"><path d="M16,2A14,14,0,1,0,30,16,14,14,0,0,0,16,2Zm0,26A12,12,0,1,1,28,16,12,12,0,0,1,16,28Z" fill="#ff4555" class="color000 svgShape"></path><path d="M22.71,9.29a1,1,0,0,0-1.42,0L16,14.59l-5.29-5.3a1,1,0,0,0-1.42,1.42L14.59,16l-5.3,5.29a1,1,0,0,0,0,1.42,1,1,0,0,0,1.42,0L16,17.41l5.29,5.3a1,1,0,0,0,1.42,0,1,1,0,0,0,0-1.42L17.41,16l5.3-5.29A1,1,0,0,0,22.71,9.29Z" fill="#ff4555" class="color000 svgShape"></path></g></svg></g></svg>